# xmcd CD database file
#
# Track frame offsets:
#	183
#	8508
#	18033
#	30883
#	50583
#	59078
#	69405
#	74183
#	77980
#	82303
#	85490
#	90783
#	96625
#	107433
#	123933
#	143003
#	150720
#	153065
#	159285
#	162790
#	167785
#	171658
#	177915
#	183875
#	189815
#	192345
#	200648
#	206798
#
# Disc length: 2864 seconds
#
# Revision: 0
# Processed by: cddbd v1.5.2PL0 Copyright (c) Steve Scherf et al.
# Submitted via: CDex 1.70beta2
#
DISCID=730b2e1c
DTITLE=32. Landesposaunentag Ulm 1988 - Ulmer Sonderdruck 14
DYEAR=1988
DGENRE=Brass Ensemble
TTITLE0=Samuel Scheidt: Symphonia Nr. 31 F-Dur
TTITLE1=Paul Ernst Ruppel: Invokation zu Markus 1,15
TTITLE2=Girolamo Frescobaldi: Recercar: Cantate Domino
TTITLE3=Felix Mendelsohn-Bartholdy: "Jauchzet dem Herrn alle Welt"
TTITLE4=Anton Bruckner: Afferentur
TTITLE5=Magdalene Schauß-Flake: Concertino für Solotrompete, Soloposaune und Bläsernensemble
TTITLE6=J.H. Schein: Courante zu 5 Stimmen
TTITLE7=J.S.Bach: "Gott des Himmels und der Erden"
TTITLE8=J.S.Bach: "Nun bitten wir den heilgen Geist"
TTITLE9=J.S.Bach: "Nun laßt uns Gott dem Herren"
TTITLE10=Rolf Schweizer: "Gott rufet noch"
TTITLE11=Erhard Frieß: "Herr , du hast darum gebetet"
TTITLE12=B.Schumann "Allein Gott in der Höh' sei Ehr" Choral der Jungbläser
TTITLE13=Gottfried Homilius: "Herre Gott, sei Schutz und Hilfe uns"
TTITLE14=Hans-Georg Bertram: "Allein zu dir Herr Jesu Christ" Choralintrade
TTITLE15=J.S.Bach: "Allein zu dir Herr Jesu Christ" Choralsatz
TTITLE16=Karl-Heinz Saretzki: "Kehret um, und ihr werdet leben"
TTITLE17=J.H.Schein: Tripla
TTITLE18=Ernst Ludwig: Grußwort Oberbürgermeister Ulm
TTITLE19=Giovanni Gabrieli: Kyrie  eleison
TTITLE20=Erhard Frieß: "Jesu Friede sei mit allen"
TTITLE21=Theo Sorg: Grußwort des Landesbischof
TTITLE22=Paul Ernst Ruppel: "Nun gehören unsere Herzen"
TTITLE23=Hermann Stern: "Wenn wir jetzt weitergehen"
TTITLE24=Harald Klingler: Sendungswort
TTITLE25=J.S.Bach: "Nun danket alle Gott" Choralsatz BWV 252
TTITLE26=Läuten der Münsterglocken
TTITLE27=J.S.Bach: "Gloria sei dir gesungen" Choralsatz BWV 140.7
EXTD=YEAR: 1988
EXTT0=
EXTT1=
EXTT2=
EXTT3=
EXTT4=
EXTT5=
EXTT6=
EXTT7=
EXTT8=
EXTT9=
EXTT10=
EXTT11=
EXTT12=
EXTT13=
EXTT14=
EXTT15=
EXTT16=
EXTT17=
EXTT18=
EXTT19=
EXTT20=
EXTT21=
EXTT22=
EXTT23=
EXTT24=
EXTT25=
EXTT26=
EXTT27=
PLAYORDER=
